<svg width="135" height="666" viewBox="0 0 135 666" fill="none" xmlns="http://www.w3.org/2000/svg">
<g clip-path="url(#clip0_302_2)">
<path d="M88.3503 246.6C99.8703 149.96 33.9499 58.6 -0.450134 25V635.4C116.03 601.48 131.855 519.054 100.35 472.2C50.3227 397.8 76.8303 343.24 88.3503 246.6Z" fill="#36D6AD"/>
<path d="M-0.449982 1C55.9157 33 124.716 152.2 113.95 246.6C103.185 341 66.9443 377.151 113.95 457.8C155.916 529.8 138.43 627.88 -0.449982 665M-0.449982 25C33.95 58.6 99.8704 149.96 88.3504 246.6C76.8304 343.24 50.3228 397.8 100.35 472.2C131.856 519.054 116.03 601.48 -0.449982 635.4V25Z" stroke="#36D6AD" stroke-width="2"/>
</g>
<defs>
<clipPath id="clip0_302_2">
<rect width="135" height="666" fill="white" transform="matrix(-1 0 0 1 135 0)"/>
</clipPath>
</defs>
</svg>
